#!OML:ASF F:\VICON\USERDATA\INSTALL\rory3\rory3.ASF
:FULLY-SPECIFIED
:DEGREES
374
root -0.758459 16.9092 16.2233 11.1408 -1.19654 -3.04268
lowerback -2.93043 2.38356 3.22497
upperback -3.58752 3.1619 1.6737
thorax -1.96791 1.53098 -0.04583
lowerneck -17.8407 1.22814 2.47781
upperneck 41.4403 3.00774 -4.34395
head 18.8951 1.01052 -1.90237
rclavicle -1.16041e-014 -1.43125e-014
rhumerus -36.587 -11.3834 -72.7023
rradius 29.9967
rwrist -14.0637
rhand -4.37367 12.6402
rfingers 7.12502
rthumb 21.3951 -16.1985
lclavicle -1.16041e-014 -1.43125e-014
lhumerus -65.3299 37.6584 43.088
lradius 18.4993
lwrist -23.2442
lhand 5.97583 16.9106
lfingers 7.12502
lthumb 31.3003 44.2544
rfemur -17.0713 16.7687 26.3136
rtibia 27.8543
rfoot -20.5939 -23.1514
rtoes -3.08748
lfemur -38.3591 1.56364 -21.5434
ltibia 48.3645
lfoot -21.8664 16.6157
ltoes -15.6154
375
root -0.768415 16.9116 16.3353 11.0818 -1.28377 -3.07639
lowerback -2.69611 2.42987 3.02191
upperback -3.58181 3.23862 1.7436
thorax -2.10605 1.57345 0.128844
lowerneck -17.4088 1.16158 2.17679
upperneck 41.1658 2.96405 -4.22638
head 18.5933 0.966093 -1.78923
rclavicle 7.65321e-015 1.23246e-014
rhumerus -36.5475 -11.0226 -72.6828
rradius 30.6378
rwrist -14.8283
rhand -4.58379 12.7985
rfingers 7.12502
rthumb 21.1933 -16.063
lclavicle 7.65321e-015 1.23246e-014
lhumerus -65.7824 37.9954 42.4156
lradius 18.3803
lwrist -23.4923
lhand 5.80581 16.8597
lfingers 7.12502
lthumb 31.1383 44.2347
rfemur -16.0629 17.0031 26.5506
rtibia 26.9958
rfoot -20.162 -23.472
rtoes -1.30331
lfemur -38.7344 1.3297 -21.3134
ltibia 46.4984
lfoot -21.9248 16.651
ltoes -15.8231
376
root -0.775049 16.9249 16.4443 11.0882 -1.27882 -3.20413
lowerback -2.42739 2.5187 2.99452
upperback -3.64602 3.37331 1.78404
thorax -2.32451 1.63912 0.172367
lowerneck -17.2127 1.09453 2.1188
upperneck 41.0873 2.90588 -4.27596
head 18.4883 0.930246 -1.81069
rclavicle -1.82385e-014 -2.3059e-014
rhumerus -36.4304 -11.1105 -72.5244
rradius 30.8609
rwrist -15.2797
rhand -4.74048 12.5889
rfingers 7.12502
rthumb 21.0427 -16.2895
lclavicle -1.82385e-014 -2.3059e-014
lhumerus -65.6989 37.9334 42.4314
lradius 18.3004
lwrist -23.2386
lhand 5.47459 16.6644
lfingers 7.12502
lthumb 30.8225 44.0996
rfemur -15.1349 17.3135 26.8446
rtibia 26.0019
rfoot -19.7648 -23.8645
rtoes -0.466571
lfemur -39.0966 0.968514 -20.9336
ltibia 44.5056
lfoot -21.8917 16.8283
ltoes -15.9507
377
root -0.763836 16.9466 16.5924 10.8667 -0.845294 -2.84089
lowerback -2.61669 2.45219 2.76403
upperback -3.45867 3.26958 1.64402
thorax -2.03031 1.59536 0.169766
lowerneck -17.2993 1.00245 2.08396
upperneck 41.099 2.75735 -4.23044
head 18.5082 0.872232 -1.81292
rclavicle -2.29099e-014 -2.06736e-014
rhumerus -36.2389 -11.3994 -72.3443
rradius 31.2106
rwrist -15.7223
rhand -4.69549 11.9844
rfingers 7.12502
rthumb 21.086 -16.8891
lclavicle -2.29099e-014 -2.06736e-014
lhumerus -62.6185 34.7705 48.3673
lradius 19.9926
lwrist -17.3968
lhand 5.41918 18.0939
lfingers 7.12502
lthumb 30.7697 45.539
rfemur -13.6006 16.4857 26.7271
rtibia 24.9058
rfoot -19.774 -23.6739
rtoes -0.0491142
lfemur -38.8665 0.18137 -21.144
ltibia 42.3284
lfoot -21.6261 17.2089
ltoes -16.9876
378
root -0.762736 16.9635 16.7303 10.6343 -0.553153 -2.58343
lowerback -2.57692 2.41463 2.44774
upperback -3.30767 3.21959 1.60776
thorax -1.91189 1.57897 0.309691
lowerneck -17.3774 0.894261 1.82926
upperneck 41.1281 2.6335 -4.10013
head 18.5324 0.800922 -1.73027
rclavicle 6.47044e-014 3.1408e-014
rhumerus -36.2339 -11.5543 -72.1322
rradius 31.8816
rwrist -16.0312
rhand -4.61305 11.6041
rfingers 7.12502
rthumb 21.1652 -17.2606
lclavicle 6.47044e-014 3.1408e-014
lhumerus -63.4952 36.0656 46.136
lradius 19.4211
lwrist -19.2852
lhand 5.34083 17.7232
lfingers 7.12502
lthumb 30.695 45.1824
rfemur -12.1419 16.1942 26.742
rtibia 23.8197
rfoot -19.6915 -23.8013
rtoes 1.37121
lfemur -38.6551 -0.440885 -21.1601
ltibia 40.0205
lfoot -20.8988 17.6779
ltoes -19.5485
379
root -0.761062 16.981 16.8537 10.549 -0.454236 -2.59186
lowerback -2.58412 2.48079 2.38978
upperback -3.08439 3.30189 1.63147
thorax -1.68128 1.62466 0.37335
lowerneck -17.7265 0.819176 1.56814
upperneck 41.1046 2.5936 -4.04091
head 18.6066 0.749066 -1.6628
rclavicle -4.42296e-015 -1.27222e-014
rhumerus -35.8829 -11.7357 -71.9704
rradius 32.258
rwrist -16.4389
rhand -4.69628 11.4018
rfingers 7.12502
rthumb 21.0852 -17.4718
lclavicle -4.42296e-015 -1.27222e-014
lhumerus -63.3075 36.5947 45.8166
lradius 19.3361
lwrist -19.8827
lhand 5.23684 17.52
lfingers 7.12502
lthumb 30.5959 44.9978
rfemur -10.9633 16.0689 26.958
rtibia 22.7483
rfoot -19.2524 -23.8735
rtoes 2.68782
lfemur -38.6071 -0.944478 -20.8245
ltibia 37.6159
lfoot -20.3992 17.9014
ltoes -20.6603
380
root -0.74951 17.0028 16.977 10.5785 -0.29402 -2.75183
lowerback -2.64598 2.52477 2.60098
upperback -3.06705 3.35538 1.68108
thorax -1.61973 1.64849 0.31109
lowerneck -17.6535 0.798496 1.48036
upperneck 41.0731 2.61843 -4.08265
head 18.5685 0.741294 -1.66002
rclavicle 3.37934e-015 -1.35174e-014
rhumerus -35.6078 -12.0366 -71.6683
rradius 32.1742
rwrist -16.7022
rhand -4.84956 11.4181
rfingers 7.12502
rthumb 20.9379 -17.4718
lclavicle 3.37934e-015 -1.35174e-014
lhumerus -62.3218 35.7227 47.6587
lradius 20.0844
lwrist -17.9753
lhand 5.04594 18.2069
lfingers 7.12502
lthumb 30.4138 45.7184
rfemur -10.021 15.5565 27.2381
rtibia 21.7082
rfoot -18.8161 -23.8223
rtoes 1.48865
lfemur -38.6522 -1.57739 -20.2699
ltibia 35.2249
lfoot -20.4813 17.6004
ltoes -19.0844
381
root -0.744442 17.028 17.1079 10.489 -0.141852 -2.79711
lowerback -2.43609 2.58414 2.65556
upperback -3.25829 3.44846 1.6363
thorax -1.92737 1.68945 0.220626
lowerneck -17.0675 0.760065 1.58401
upperneck 40.9972 2.54875 -4.1413
head 18.3609 0.730398 -1.7154
rclavicle 1.38901e-014 -9.54166e-015
rhumerus -35.7922 -12.1614 -71.4529
rradius 32.0915
rwrist -17.0607
rhand -5.10344 11.7196
rfingers 7.12502
rthumb 20.694 -17.1971
lclavicle 1.38901e-014 -9.54166e-015
lhumerus -62.0972 35.2177 47.9674
lradius 20.3539
lwrist -17.1617
lhand 4.81351 18.1512
lfingers 7.12502
lthumb 30.1921 45.7035
rfemur -8.92657 15.2857 27.4455
rtibia 20.6062
rfoot -18.6322 -23.8572
rtoes 0.0237359
lfemur -38.5366 -2.20239 -19.775
ltibia 32.9135
lfoot -20.1499 17.2744
ltoes -17.5423
382
root -0.745602 17.0363 17.2393 10.349 -0.154272 -2.61867
lowerback -2.0732 2.69857 2.33413
upperback -3.39887 3.62172 1.56237
thorax -2.28752 1.77843 0.301936
lowerneck -16.9406 0.668548 1.57883
upperneck 41.0641 2.42486 -4.1575
head 18.36 0.681446 -1.74787
rclavicle -1.91827e-014 4.37326e-015
rhumerus -36.0224 -11.729 -71.5087
rradius 32.3306
rwrist -18.3019
rhand -5.61822 12.1007
rfingers 7.12502
rthumb 20.1993 -16.869
lclavicle -1.91827e-014 4.37326e-015
lhumerus -62.0761 35.3206 47.44
lradius 20.2304
lwrist -17.5742
lhand 4.806 17.5097
lfingers 7.12502
lthumb 30.1849 45.0633
rfemur -7.66584 15.3097 27.452
rtibia 19.5544
rfoot -18.292 -23.9386
rtoes 0.410285
lfemur -38.321 -2.71737 -19.4873
ltibia 30.6747
lfoot -19.7515 16.9718
ltoes -16.8597
